<mxfile host="app.diagrams.net" modified="2022-09-20T01:07:38.370Z" agent="5.0 (Windows NT 10.0; Win64; x64) AppleWebKit/537.36 (KHTML, like Gecko) Chrome/104.0.5112.102 Safari/537.36 OPR/90.0.4480.84" etag="e3RdZnGCVcdw6a7Mc2Sv" version="20.3.1" type="github">
  <diagram id="C5RBs43oDa-KdzZeNtuy" name="Page-1">
    <mxGraphModel dx="1366" dy="725" grid="1" gridSize="10" guides="1" tooltips="1" connect="1" arrows="1" fold="1" page="1" pageScale="1" pageWidth="1169" pageHeight="827" math="0" shadow="0">
      <root>
        <mxCell id="WIyWlLk6GJQsqaUBKTNV-0" />
        <mxCell id="WIyWlLk6GJQsqaUBKTNV-1" parent="WIyWlLk6GJQsqaUBKTNV-0" />
        <mxCell id="V7hTzxYA86uIfPX5H81l-7" style="edgeStyle=orthogonalEdgeStyle;rounded=0;orthogonalLoop=1;jettySize=auto;html=1;exitX=1;exitY=0.5;exitDx=0;exitDy=0;fontFamily=Helvetica;entryX=0;entryY=0.5;entryDx=0;entryDy=0;" parent="WIyWlLk6GJQsqaUBKTNV-1" source="V7hTzxYA86uIfPX5H81l-0" target="V7hTzxYA86uIfPX5H81l-9" edge="1">
          <mxGeometry relative="1" as="geometry">
            <mxPoint x="620.0000000000002" y="179.66666666666674" as="targetPoint" />
          </mxGeometry>
        </mxCell>
        <mxCell id="V7hTzxYA86uIfPX5H81l-14" style="edgeStyle=orthogonalEdgeStyle;rounded=0;orthogonalLoop=1;jettySize=auto;html=1;exitX=0.5;exitY=1;exitDx=0;exitDy=0;entryX=0.5;entryY=0;entryDx=0;entryDy=0;fontFamily=Helvetica;" parent="WIyWlLk6GJQsqaUBKTNV-1" source="V7hTzxYA86uIfPX5H81l-0" target="V7hTzxYA86uIfPX5H81l-13" edge="1">
          <mxGeometry relative="1" as="geometry" />
        </mxCell>
        <mxCell id="V7hTzxYA86uIfPX5H81l-0" value="&lt;p&gt;&lt;span style=&quot;color: rgb(32, 33, 34); font-size: 14px; text-align: start;&quot;&gt;μ&lt;/span&gt;Controlador&lt;/p&gt;" style="rounded=1;whiteSpace=wrap;html=1;fontSize=12;glass=0;strokeWidth=1;shadow=0;fillColor=#f5f5f5;strokeColor=#666666;gradientColor=#b3b3b3;" parent="WIyWlLk6GJQsqaUBKTNV-1" vertex="1">
          <mxGeometry x="350" y="142.5" width="120" height="75" as="geometry" />
        </mxCell>
        <mxCell id="V7hTzxYA86uIfPX5H81l-2" style="edgeStyle=orthogonalEdgeStyle;rounded=0;orthogonalLoop=1;jettySize=auto;html=1;entryX=0;entryY=0.5;entryDx=0;entryDy=0;exitX=1;exitY=0.5;exitDx=0;exitDy=0;" parent="WIyWlLk6GJQsqaUBKTNV-1" source="V7hTzxYA86uIfPX5H81l-3" target="V7hTzxYA86uIfPX5H81l-0" edge="1">
          <mxGeometry relative="1" as="geometry">
            <mxPoint x="420" y="180" as="sourcePoint" />
          </mxGeometry>
        </mxCell>
        <mxCell id="V7hTzxYA86uIfPX5H81l-3" value="Adequação" style="rounded=0;whiteSpace=wrap;html=1;" parent="WIyWlLk6GJQsqaUBKTNV-1" vertex="1">
          <mxGeometry x="180" y="165" width="80" height="30" as="geometry" />
        </mxCell>
        <mxCell id="V7hTzxYA86uIfPX5H81l-5" style="edgeStyle=orthogonalEdgeStyle;rounded=0;orthogonalLoop=1;jettySize=auto;html=1;exitX=1;exitY=0.5;exitDx=0;exitDy=0;entryX=0;entryY=0.5;entryDx=0;entryDy=0;fontFamily=Helvetica;" parent="WIyWlLk6GJQsqaUBKTNV-1" source="V7hTzxYA86uIfPX5H81l-4" target="V7hTzxYA86uIfPX5H81l-3" edge="1">
          <mxGeometry relative="1" as="geometry" />
        </mxCell>
        <mxCell id="V7hTzxYA86uIfPX5H81l-4" value="Sensor" style="ellipse;whiteSpace=wrap;html=1;fillColor=#bac8d3;strokeColor=#23445d;" parent="WIyWlLk6GJQsqaUBKTNV-1" vertex="1">
          <mxGeometry x="40" y="150" width="100" height="60" as="geometry" />
        </mxCell>
        <mxCell id="V7hTzxYA86uIfPX5H81l-6" value="Ventilador" style="rhombus;whiteSpace=wrap;html=1;fontFamily=Helvetica;fillColor=#d0cee2;strokeColor=#56517e;" parent="WIyWlLk6GJQsqaUBKTNV-1" vertex="1">
          <mxGeometry x="670" y="140" width="80" height="80" as="geometry" />
        </mxCell>
        <mxCell id="V7hTzxYA86uIfPX5H81l-11" style="edgeStyle=orthogonalEdgeStyle;rounded=0;orthogonalLoop=1;jettySize=auto;html=1;exitX=1;exitY=0.5;exitDx=0;exitDy=0;entryX=0;entryY=0.5;entryDx=0;entryDy=0;fontFamily=Helvetica;" parent="WIyWlLk6GJQsqaUBKTNV-1" source="V7hTzxYA86uIfPX5H81l-9" target="V7hTzxYA86uIfPX5H81l-6" edge="1">
          <mxGeometry relative="1" as="geometry" />
        </mxCell>
        <mxCell id="V7hTzxYA86uIfPX5H81l-9" value="Acionamento" style="rounded=0;whiteSpace=wrap;html=1;fillColor=#b0e3e6;strokeColor=#0e8088;" parent="WIyWlLk6GJQsqaUBKTNV-1" vertex="1">
          <mxGeometry x="550" y="165" width="80" height="30" as="geometry" />
        </mxCell>
        <mxCell id="V7hTzxYA86uIfPX5H81l-13" value="LCD" style="rounded=0;whiteSpace=wrap;html=1;fontFamily=Helvetica;fillColor=#d5e8d4;strokeColor=#82b366;" parent="WIyWlLk6GJQsqaUBKTNV-1" vertex="1">
          <mxGeometry x="350" y="280" width="120" height="40" as="geometry" />
        </mxCell>
        <mxCell id="V7hTzxYA86uIfPX5H81l-18" value="" style="edgeStyle=orthogonalEdgeStyle;rounded=0;orthogonalLoop=1;jettySize=auto;html=1;fontFamily=Helvetica;" parent="WIyWlLk6GJQsqaUBKTNV-1" source="V7hTzxYA86uIfPX5H81l-15" target="V7hTzxYA86uIfPX5H81l-0" edge="1">
          <mxGeometry relative="1" as="geometry" />
        </mxCell>
        <mxCell id="V7hTzxYA86uIfPX5H81l-15" value="Setpoint" style="ellipse;whiteSpace=wrap;html=1;aspect=fixed;fontFamily=Helvetica;fillColor=#fad9d5;strokeColor=#ae4132;" parent="WIyWlLk6GJQsqaUBKTNV-1" vertex="1">
          <mxGeometry x="380" y="40" width="60" height="60" as="geometry" />
        </mxCell>
      </root>
    </mxGraphModel>
  </diagram>
</mxfile>
